<?xml version="1.0" encoding="utf-8"?>
<!-- Generator: Adobe Illustrator 17.0.0, SVG Export Plug-In . SVG Version: 6.00 Build 0)  -->
<!DOCTYPE svg PUBLIC "-//W3C//DTD SVG 1.1//EN" "http://www.w3.org/Graphics/SVG/1.1/DTD/svg11.dtd">
<svg version="1.1" id="Слой_1" xmlns="http://www.w3.org/2000/svg" xmlns:xlink="http://www.w3.org/1999/xlink" x="0px" y="0px"
	 width="38.5px" height="37px" viewBox="0 0 38.5 37" enable-background="new 0 0 38.5 37" xml:space="preserve">
<g>
	<path fill="#FFFFFF" d="M25.497,28.394c-0.102,0-0.205-0.017-0.307-0.052c-0.48-0.17-0.732-0.697-0.563-1.176l6.34-17.962
		c0.813-2.302,2.553-5.082,4.178-5.701L37.25,2.7c0.474-0.18,1.008,0.058,1.19,0.533c0.181,0.475-0.058,1.008-0.533,1.189
		l-2.104,0.802c-0.712,0.271-2.235,2.149-3.096,4.592l-6.34,17.962C26.232,28.157,25.877,28.394,25.497,28.394z"/>
	<path fill="#FFFFFF" d="M6.531,32.041c-0.003,0-0.005,0-0.008,0l-1.606-0.014c-0.509-0.005-0.918-0.421-0.914-0.93
		c0.005-0.507,0.417-0.914,0.922-0.914c0.003,0,0.005,0,0.008,0l1.606,0.014c0.509,0.005,0.918,0.421,0.914,0.93
		C7.448,31.634,7.036,32.041,6.531,32.041z"/>
	<path fill="#FFFFFF" d="M19.071,32.158c-0.003,0-0.005,0-0.008,0l-6.744-0.064c-0.509-0.005-0.918-0.42-0.914-0.93
		c0.005-0.506,0.416-0.914,0.922-0.914c0.003,0,0.005,0,0.008,0l6.744,0.064c0.509,0.005,0.918,0.421,0.914,0.93
		C19.988,31.751,19.576,32.158,19.071,32.158z"/>
	<path fill="#FFFFFF" d="M25.258,32.205c-0.438,0-0.827-0.313-0.906-0.76c-0.089-0.501,0.245-0.98,0.745-1.069l1.266-0.226
		c0.149-0.068,0.265-0.219,0.311-0.346c-0.398-0.337-1.761-1.051-3.87-1.612L9.543,24.667C6.771,23.931,3.92,21.214,3.05,18.48
		l-1.412-4.438c-0.457-1.438-0.273-2.861,0.507-3.906c0.779-1.044,2.108-1.603,3.6-1.596l25.659,0.509
		c0.509,0.01,0.914,0.431,0.904,0.94c-0.01,0.509-0.434,0.919-0.94,0.903L5.709,10.384C4.79,10.347,4.047,10.67,3.622,11.24
		c-0.426,0.57-0.506,1.367-0.227,2.244l1.412,4.438c0.674,2.119,3.059,4.393,5.209,4.964l13.261,3.525
		c1.189,0.317,5.081,1.473,5.25,3.071c0.111,1.025-0.605,2.096-1.628,2.437l-0.129,0.032l-1.349,0.24
		C25.366,32.2,25.312,32.205,25.258,32.205z"/>
	<path fill="#FFFFFF" d="M9.366,35.191c-2.147,0-3.893-1.746-3.893-3.892c0-2.147,1.746-3.893,3.893-3.893s3.893,1.746,3.893,3.893
		C13.259,33.445,11.513,35.191,9.366,35.191z M9.366,29.25c-1.131,0-2.05,0.919-2.05,2.05c0,1.13,0.919,2.049,2.05,2.049
		s2.05-0.919,2.05-2.049C11.416,30.169,10.497,29.25,9.366,29.25z"/>
	<path fill="#FFFFFF" d="M22.062,35.191c-2.147,0-3.893-1.746-3.893-3.892c0-2.147,1.746-3.893,3.893-3.893s3.893,1.746,3.893,3.893
		C25.955,33.445,24.209,35.191,22.062,35.191z M22.062,29.25c-1.131,0-2.05,0.919-2.05,2.05c0,1.13,0.919,2.049,2.05,2.049
		c1.131,0,2.05-0.919,2.05-2.049C24.112,30.169,23.193,29.25,22.062,29.25z"/>
	<path fill="#FFFFFF" d="M29.862,14.11H2.883c-0.509,0-0.922-0.413-0.922-0.922s0.412-0.922,0.922-0.922h26.979
		c0.509,0,0.922,0.413,0.922,0.922S30.371,14.11,29.862,14.11z"/>
</g>
</svg>
