<?xml version="1.0" encoding="utf-8"?>
<!-- Generator: Adobe Illustrator 17.0.0, SVG Export Plug-In . SVG Version: 6.00 Build 0)  -->
<!DOCTYPE svg PUBLIC "-//W3C//DTD SVG 1.1//EN" "http://www.w3.org/Graphics/SVG/1.1/DTD/svg11.dtd">
<svg version="1.1" id="Слой_1" xmlns="http://www.w3.org/2000/svg" xmlns:xlink="http://www.w3.org/1999/xlink" x="0px" y="0px"
	 width="38.5px" height="37px" viewBox="0 0 38.5 37" enable-background="new 0 0 38.5 37" xml:space="preserve">
<g>
	<path fill="#FFFFFF" d="M19.532,27.873l-0.937-1.108c-0.184-0.218-4.527-5.359-5.876-7.261c-1.108-1.563-2.428-4.01-2.428-6.801
		c0-4.668,3.798-8.466,8.466-8.466c4.668,0,8.466,3.798,8.466,8.466c0,2.6-1.011,4.9-1.859,6.371
		c-1.135,1.969-4.852,7.374-5.01,7.604L19.532,27.873z M18.757,6.454c-3.446,0-6.249,2.804-6.249,6.25
		c0,2.207,1.099,4.219,2.02,5.519c0.924,1.304,3.442,4.344,4.823,5.996c1.186-1.743,3.318-4.907,4.093-6.251
		c0.713-1.237,1.563-3.154,1.563-5.264C25.007,9.258,22.204,6.454,18.757,6.454z"/>
	<path fill="#FFFFFF" d="M19.378,33.832c-9.777,0-17.15-3.318-17.15-7.718c0-2.468,2.257-4.622,6.354-6.068
		c0.577-0.201,1.21,0.1,1.414,0.677s-0.099,1.21-0.676,1.414c-3.007,1.061-4.875,2.585-4.875,3.977
		c0,2.602,6.133,5.501,14.933,5.501s14.933-2.899,14.933-5.501c0-1.548-2.297-3.234-5.853-4.295
		c-0.587-0.175-0.92-0.792-0.745-1.379c0.175-0.587,0.795-0.921,1.379-0.745c4.726,1.41,7.436,3.749,7.436,6.419
		C36.528,30.514,29.155,33.832,19.378,33.832z"/>
	<path fill="#FFFFFF" d="M18.929,17.149c-1.885,0-3.418-1.533-3.418-3.418c0-1.885,1.533-3.418,3.418-3.418
		c1.885,0,3.418,1.533,3.418,3.418C22.346,15.615,20.813,17.149,18.929,17.149z M18.929,12.529c-0.663,0-1.202,0.539-1.202,1.201
		c0,0.663,0.539,1.202,1.202,1.202c0.662,0,1.201-0.539,1.201-1.202C20.13,13.068,19.591,12.529,18.929,12.529z"/>
</g>
</svg>
