<?xml version="1.0" encoding="utf-8"?>
<!-- Generator: Adobe Illustrator 17.0.0, SVG Export Plug-In . SVG Version: 6.00 Build 0)  -->
<!DOCTYPE svg PUBLIC "-//W3C//DTD SVG 1.1//EN" "http://www.w3.org/Graphics/SVG/1.1/DTD/svg11.dtd">
<svg version="1.1" id="Слой_1" xmlns="http://www.w3.org/2000/svg" xmlns:xlink="http://www.w3.org/1999/xlink" x="0px" y="0px"
	 width="60px" height="60px" viewBox="0 0 60 60" enable-background="new 0 0 60 60" xml:space="preserve">
<path fill="#A11C2D" d="M29.237,57.584l-2.359-0.06c-0.187-0.005-0.372-0.01-0.573-0.014c-1.493-0.038-3.455-0.274-4.351-1.186
	c-0.379-0.384-1.088-1.104-1.099-7.064l-0.023-11.726c-0.005-2.163,0.089-5.793,0.364-6.927c0.237-0.974,0.998-2.86,1.594-4.14
	c0.502-1.078,0.959-3.026,0.959-4.086c0-1.409,0.215-4.851,0.478-7.672c0.239-2.558,0.357-4.429,0.36-4.942
	c-0.102-0.602,0.015-1.186,0.142-1.589c-0.227-0.649-0.202-1.408,0.094-2.122c0.136-0.329,0.278-0.566,0.376-0.714l0.45-1.037
	l1.318-0.039c0.473,0,0.819,0.235,1.016,0.235h1.849c0.236,0,0.569,0,1.015,0h1.337l0.34,0.713c0.189,0.217,0.345,0.424,0.465,0.719
	c0.261,0.636,0.342,1.467,0.065,2.225c0.149,0.497,0.223,1.083,0.109,1.652c-0.005,0.528,0.092,2.387,0.307,4.911
	c0.241,2.816,0.437,6.25,0.437,7.658c0,1.055,0.472,2.99,0.989,4.064c0.611,1.268,1.405,3.134,1.675,4.098
	c0.345,1.248,0.432,5.119,0.429,6.992l-0.017,11.726c-0.008,5.872-0.579,6.55-0.922,6.956c-0.841,1.001-2.841,1.257-4.334,1.295
	c-0.149,0.004,0.521,0.008-0.479,0.012v0.058L29.237,57.584z M25.051,53.403c0.356,0.059,1.009,0.112,1.543,0.126
	c1.02,0.025,1.656,0.045,2.656,0.124v-0.051v-0.003l0.103,0.054c0.624-0.078,1.38-0.099,2.347-0.124
	c0.443-0.012,0.827-0.054,1.139-0.103c0.088-0.839,0.168-2.287,0.171-4.173l0.013-11.726c0.004-3.137-0.183-5.494-0.29-5.932
	c-0.146-0.526-0.77-2.072-1.423-3.425c-0.788-1.637-1.384-4.128-1.384-5.795c0-1.292-0.193-4.646-0.422-7.323
	c-0.338-3.951-0.35-5.291-0.284-5.851C29.134,8.998,29.068,8.5,29.029,8.5h-0.254c-0.04,0-0.115,0.548-0.226,0.801
	c0.047,0.544,0.01,1.85-0.355,5.766c-0.249,2.673-0.46,6.023-0.46,7.308c0,1.658-0.573,4.14-1.331,5.77
	c-0.608,1.306-1.206,2.872-1.334,3.399c-0.093,0.424-0.257,2.794-0.251,5.981l0.024,11.726
	C24.845,51.132,24.95,52.579,25.051,53.403z"/>
<path fill="#A11C2D" d="M39.361,54.929l-1.992-0.057c-1.755-0.047-2.965-0.397-3.596-1.04c-0.381-0.387-0.961-0.975-0.972-5.673
	l-0.018-8.852c-0.003-1.427,0.054-4.38,0.289-5.347c0.185-0.767,0.762-2.199,1.235-3.215c0.347-0.749,0.678-2.149,0.678-2.878
	c0-1.094,0.159-3.658,0.363-5.837c0.172-1.851,0.262-3.236,0.268-3.654c-0.069-0.46-0.003-0.897,0.087-1.232
	c-0.158-0.568-0.121-1.206,0.128-1.806c0.111-0.271,0.222-0.462,0.301-0.59l0.474-1.051l1.298,0.316
	c0.358,0,0.634,0.487,0.809,0.487h1.308c0.191,0,0.461,0,0.808,0h1.331l0.38,0.499c0.141,0.184,0.259,0.19,0.356,0.424
	c0.257,0.629,0.286,1.208,0.109,1.803c0.097,0.39,0.139,0.792,0.061,1.234c0.001,0.394,0.064,1.655,0.229,3.603
	c0.183,2.129,0.332,4.729,0.332,5.813c0,0.724,0.338,2.106,0.697,2.851c0.469,0.973,1.084,2.414,1.295,3.171
	c0.344,1.233,0.342,5.239,0.342,5.409l-0.013,8.851c-0.005,4.606-0.687,5.158-1.025,5.561c-0.592,0.701-0.674,1.086-3.674,1.149
	v0.057l-1.832,0.004l0.053-1.991l-0.026,1.989L39.361,54.929z M36.898,50.852c0.18,0.019,0.382,0.034,0.598,0.04
	c0.688,0.017,1.307-0.191,1.834-0.125l0.036-0.267h0.17l-0.286,0.447v0.041c0-0.066,1.325-0.081,1.978-0.097
	c0.154-0.004,0.404-0.013,0.536-0.025c0.051-0.638,0.148-1.572,0.149-2.715l0.039-8.852c0.003-2.268-0.117-4.022-0.192-4.366
	c-0.088-0.312-0.525-1.436-1.031-2.484c-0.624-1.295-1.09-3.265-1.09-4.586c0-0.972-0.144-3.485-0.315-5.485
	c-0.003-0.026-0.004-0.052-0.006-0.078c-0.004,0.033-0.006,0.066-0.01,0.1c-0.187,2.007-0.345,4.511-0.345,5.467
	c0,1.311-0.451,3.27-1.05,4.559c-0.48,1.029-0.897,2.15-0.975,2.471c-0.064,0.325-0.181,2.092-0.178,4.403l0.018,8.851
	C36.785,49.292,36.838,50.225,36.898,50.852z"/>
</svg>
