<?xml version="1.0" encoding="utf-8"?>
<!-- Generator: Adobe Illustrator 17.0.0, SVG Export Plug-In . SVG Version: 6.00 Build 0)  -->
<!DOCTYPE svg PUBLIC "-//W3C//DTD SVG 1.1//EN" "http://www.w3.org/Graphics/SVG/1.1/DTD/svg11.dtd">
<svg version="1.1" id="Слой_1" xmlns="http://www.w3.org/2000/svg" xmlns:xlink="http://www.w3.org/1999/xlink" x="0px" y="0px"
	 width="60px" height="60px" viewBox="0 0 60 60" enable-background="new 0 0 60 60" xml:space="preserve">
<g>
	<path fill="#A11C2D" d="M15.159,27.004c0.263,0.154,0.557,0.231,0.853,0.231c0.295,0,0.589-0.077,0.853-0.231
		c1.01-0.588,9.861-5.91,9.861-11.531c0-3.437-2.783-6.234-6.205-6.234c-1.775,0-3.378,0.753-4.509,1.958
		c-1.132-1.204-2.735-1.958-4.511-1.958c-3.421,0-6.205,2.797-6.205,6.234C5.296,21.094,14.149,26.416,15.159,27.004z
		 M11.501,12.626c1.553,0,2.817,1.277,2.817,2.847c0,0.935,0.758,1.694,1.694,1.694c0.935,0,1.694-0.758,1.694-1.694
		c0-1.57,1.263-2.847,2.815-2.847c1.553,0,2.817,1.277,2.817,2.847c0,2.546-4.191,6.081-7.326,8.083
		c-3.136-2.001-7.328-5.537-7.328-8.083C8.684,13.903,9.947,12.626,11.501,12.626z"/>
	<path fill="#A11C2D" d="M54.306,37.752c-0.597-0.724-1.187-1.393-1.687-1.944c-0.065-0.101-0.139-0.197-0.227-0.285l-0.447-0.447
		c-0.363-0.387-0.6-0.63-0.623-0.654l-0.016,0.015l-5.501-5.572c-1.308-1.307-3.687-2.363-5.535-2.363H22.991
		c-2.335,0-3.741,2.042-3.741,4.376v0.509c0,2.335,1.406,4.115,3.741,4.115h4.549l-0.901,0.961c-0.615,0.615-2.012,1.11-2.875,0.988
		L9.23,35.388c-1.912-0.274-4.212,0.386-5.35,1.524c-0.707,0.707-1.009,1.653-0.829,2.587c0.211,1.098,1.049,2.036,2.298,2.571
		l14.893,6.384c1.63,0.699,4.158,0.901,5.878,0.471l6.249-1.562c1.462-0.365,3.686-1.131,5.064-1.742l1.65-0.733
		c0.61-0.271,1.652-0.053,2.102,0.439l5.962,6.511c0.334,0.365,0.791,0.55,1.25,0.55c0.409,0,0.819-0.147,1.144-0.445
		c0.026-0.024,0.045-0.053,0.07-0.078c2.138-1.199,7.778-4.685,7.908-8.15C57.554,42.795,57.22,41.286,54.306,37.752z
		 M43.684,43.039c-1.423-1.554-4.048-2.101-5.975-1.246l-1.65,0.733c-1.186,0.526-3.252,1.237-4.511,1.552l-6.249,1.563
		c-1.001,0.25-2.775,0.107-3.723-0.299l-14.771-6.33c0.519-0.204,1.281-0.35,1.946-0.256l14.533,2.077
		c1.912,0.274,4.383-0.551,5.749-1.916l1.997-1.997c1.391-1.391,1.085-2.507,0.889-2.98c-0.196-0.473-0.864-1.439-2.831-1.439
		h-6.098c-0.459,0-0.741-0.657-0.741-1.116v-0.508c0-0.459,0.282-0.376,0.741-0.376h17.277c0.945,0,2.471,0.396,3.14,1.065
		l6.088,5.97c2.414,2.558,4.504,5.272,4.638,6.142c-0.085,0.948-2.56,3.097-5.457,4.841L43.684,43.039z"/>
</g>
</svg>
