<?xml version="1.0" encoding="utf-8"?>
<!-- Generator: Adobe Illustrator 17.0.0, SVG Export Plug-In . SVG Version: 6.00 Build 0)  -->
<!DOCTYPE svg PUBLIC "-//W3C//DTD SVG 1.1//EN" "http://www.w3.org/Graphics/SVG/1.1/DTD/svg11.dtd">
<svg version="1.1" id="Слой_1" xmlns="http://www.w3.org/2000/svg" xmlns:xlink="http://www.w3.org/1999/xlink" x="0px" y="0px"
	 width="38.5px" height="37px" viewBox="0 0 38.5 37" enable-background="new 0 0 38.5 37" xml:space="preserve">
<path fill="#E4BC8A" d="M31.334,28.757l-7.376-7.317c1.315-1.643,2.027-3.668,2.019-5.802c-0.01-2.47-0.981-4.79-2.735-6.529
	c-1.744-1.73-4.058-2.683-6.514-2.683c-2.485,0-4.818,0.972-6.568,2.736c-1.74,1.754-2.692,4.081-2.683,6.551
	c0.01,2.471,0.981,4.79,2.736,6.53c1.744,1.73,4.057,2.683,6.514,2.683c2.148,0,4.181-0.729,5.823-2.066l7.376,7.317
	c0.195,0.194,0.449,0.291,0.704,0.291c0.257,0,0.515-0.1,0.71-0.296C31.729,29.779,31.727,29.146,31.334,28.757z M11.621,20.823
	c-1.375-1.364-2.136-3.182-2.144-5.118s0.739-3.76,2.103-5.135c1.372-1.383,3.2-2.145,5.148-2.145c1.925,0,3.738,0.747,5.105,2.103
	c1.375,1.364,2.136,3.181,2.144,5.118s-0.738,3.76-2.103,5.135c-1.372,1.383-3.2,2.144-5.147,2.144
	C14.801,22.926,12.988,22.179,11.621,20.823z"/>
</svg>
