<?xml version="1.0" encoding="utf-8"?>
<!-- Generator: Adobe Illustrator 17.0.0, SVG Export Plug-In . SVG Version: 6.00 Build 0)  -->
<!DOCTYPE svg PUBLIC "-//W3C//DTD SVG 1.1//EN" "http://www.w3.org/Graphics/SVG/1.1/DTD/svg11.dtd">
<svg version="1.1" id="Слой_1" xmlns="http://www.w3.org/2000/svg" xmlns:xlink="http://www.w3.org/1999/xlink" x="0px" y="0px"
	 width="60px" height="60px" viewBox="0 0 60 60" enable-background="new 0 0 60 60" xml:space="preserve">
<g>
	<path fill="#A11C2D" d="M53.849,13.843l4.052-3.545c0.822-0.719,0.906-1.967,0.187-2.789S56.121,6.603,55.3,7.323l-4.254,3.722
		L49.21,9.214c-1.552-1.55-4.424-2.116-6.459-1.25l-2.814,1.197l-1.28-1.278c-1.596-1.59-4.365-2.122-6.447-1.237l-8.805,3.744
		c-1.612,0.686-3.712,2.184-4.884,3.483L2.185,31.98c-1.703,1.888-1.553,4.81,0.335,6.514l16.632,15.005
		c0.852,0.769,1.938,1.184,3.082,1.184c0.081,0,0.162-0.002,0.244-0.006c1.232-0.063,2.364-0.601,3.187-1.513l0.986-1.093
		l3.043,2.745C30.541,55.579,31.637,56,32.78,56c1.306,0,2.555-0.554,3.427-1.52l16.095-17.839c1.145-1.271,2.46-3.543,2.992-5.175
		l2.783-8.559c0.678-2.088,0.018-4.83-1.535-6.377L53.849,13.843z M22.73,50.515c-0.156,0.174-0.353,0.208-0.456,0.214
		c-0.106,0.005-0.302-0.01-0.475-0.165L5.168,35.558c-0.265-0.239-0.287-0.665-0.048-0.93l16.335-18.107
		c0.784-0.869,2.418-2.034,3.496-2.493l8.805-3.744c0.593-0.253,1.657-0.052,2.108,0.397l0.149,0.148l-2.066,0.879
		c-1.611,0.685-3.712,2.182-4.885,3.483L12.726,33.297c-1.703,1.888-1.553,4.81,0.335,6.514l10.654,9.612L22.73,50.515z
		 M54.316,21.685l-2.782,8.557c-0.367,1.123-1.379,2.877-2.168,3.751L33.272,51.832c-0.169,0.187-0.381,0.215-0.493,0.215
		c-0.116,0-0.287-0.029-0.439-0.167L15.709,36.876c-0.265-0.239-0.287-0.665-0.048-0.93l16.335-18.107
		c0.785-0.87,2.419-2.034,3.497-2.493l8.804-3.744c0.163-0.069,0.386-0.107,0.628-0.107c0.574,0,1.188,0.213,1.493,0.517
		l7.332,7.317C54.248,19.825,54.533,21.015,54.316,21.685z"/>
	<path fill="#A11C2D" d="M42.435,19.022c-2.724,0-4.941,2.216-4.941,4.941s2.217,4.941,4.941,4.941s4.941-2.216,4.941-4.941
		S45.159,19.022,42.435,19.022z M42.435,24.951c-0.544,0-0.988-0.443-0.988-0.988s0.444-0.988,0.988-0.988s0.988,0.443,0.988,0.988
		C43.424,24.508,42.98,24.951,42.435,24.951z"/>
</g>
</svg>
